#!OML:ASF F:\VICON\USERDATA\INSTALL\rory3\rory3.ASF
:FULLY-SPECIFIED
:DEGREES
47
root 0.7097485159661274 17.974861243124597 36.32909117058885 -3.617484985200272 0.49917760435011305 -2.479068229899106
lfemur -13.48205210172148 -3.333176716519308 -21.399834108307772
ltibia 16.790153339891
lfoot -8.251585609983904 -4.349201573239734
ltoes -5.706201582398695
rfemur -6.5816755371916065 2.3513928055422966 24.76656682558514
rtibia 57.19300683952174
rfoot -0.8379730841302813 -9.586828952712033
rtoes 11.538022916333201
lowerback -1.0 1.0217088456702237 2.764385422583371
upperback 0.025783028368615818 1.8583241189322366 0.961695059415958
thorax -4.884930882827968 0.9423295680609527 -1.10240775475773
lowerneck -16.205198132581494 -3.3373412209154534 -1.61206975164483
upperneck 21.54297205670157 -4.435565458115055 1.4536294388744047
head 9.627689565000116 -2.0863294936000996 0.16876095987944614
lclavicle 3.6879975265298315e-16 -8.413133268614154e-16
lhumerus -34.52587521047062 6.085146427839083 80.78727784095297
lradius 26.11271651187306
lwrist 8.409994411583263
lhand -28.428060720393763 21.05505889170375
lfingers nan
lthumb -2.1503688716086566 50.46615930829569
rclavicle 4.669178412991838e-16 -7.843322463994344e-16
rhumerus -25.094784130010503 -11.220485931379724 -79.83520474470868
rradius 30.368908847600995
rwrist 2.4074817194751166
rhand -17.46263469631012 -1.0
rfingers nan
rthumb 8.818162382727307 -7.576055101430834
48
root 0.7205969542099842 17.953745075854133 37.857345261628765 -3.9557298621854615 0.3575279296087901 -0.8222900417978265
lfemur -9.085107655126036 -3.5469073452644206 -23.317723469459384
ltibia 16.00577468696062
lfoot -7.5025154737843485 -4.5508107516111185
ltoes -5.636732597924722
rfemur -10.247702205013919 1.5132594110429824 22.445119443185117
rtibia 62.21732378185476
rfoot -2.5092616126350666 -7.8584446366298994
rtoes 11.239229875420635
lowerback -1.0 0.725832103026324 1.093247477285808
upperback 0.11816004889308161 1.16394993200506 0.7352774808237607
thorax -4.95893977128847 0.622994119603985 -0.4153838500445681
lowerneck -16.274442100304643 -3.3038073697438746 -1.5635725108182328
upperneck 21.486256474547137 -4.38787933425461 1.5402643853862612
head 9.614099675632781 -2.0624851247495206 0.2221764151535015
lclavicle 3.6127706222388775e-16 -8.443212710085937e-16
lhumerus -33.50272271272759 5.129177135438558 80.71290176646673
lradius 26.757790717133112
lwrist 8.311104299921853
lhand -28.378926790514985 20.97941479930614
lfingers nan
lthumb -2.0454713128894366 50.5346839162758
rclavicle 4.593746817350704e-16 -7.843146555845274e-16
rhumerus -25.897903529687895 -12.79018008527116 -80.97415855780493
rradius 29.25705543864748
rwrist 2.462813099928316
rhand -17.530111008762358 -1.0
rfingers nan
rthumb 8.840856540499896 -7.391628679532659
49
root 0.7214904956449654 17.922581711959708 39.07390687362383 -4.223315712098836 0.36396242911046306 0.42412968373817495
lfemur -5.052735272256946 -3.9293353815676904 -24.880257055032075
ltibia 15.811314890345994
lfoot -6.632951083163087 -5.3364782077248964
ltoes -5.4374942778585345
rfemur -14.329716160278554 0.5650456330014526 20.300308863653388
rtibia 65.83514714221407
rfoot -4.2023695726341135 -5.579773769858793
rtoes 10.227226477734709
lowerback -1.0 0.3741568794098433 -0.3026313431346521
upperback 0.2130877550131771 0.5399752857403703 0.5746261027748119
thorax -4.999325438667714 0.3421920934072068 0.3046046096556568
lowerneck -16.353056519824086 -3.255885846997845 -1.5267531675482597
upperneck 21.401849772069994 -4.318401785086912 1.5964606830946786
head 9.608056063605813 -2.031125504892081 0.26448828796296125
lclavicle 3.5038805743206223e-16 -8.492011132984939e-16
lhumerus -32.320265255381315 4.155332560143318 80.63009193728445
lradius 27.3639572126501
lwrist 8.032382518602395
lhand -28.232400883327507 21.097869628376714
lfingers nan
lthumb -1.9527080249940292 50.52395419472434
rclavicle 4.478881393758424e-16 -7.853997312441794e-16
rhumerus -26.868238218757707 -14.690989334988092 -81.94493530894401
rradius 28.333170307166345
rwrist 2.3188454038010304
rhand -17.57409741211112 -1.0
rfingers nan
rthumb 8.78578754142676 -7.370566901680692
50
root 0.7074815976605123 17.887485031175665 40.09200843253549 -4.309403170365146 0.46925186166455823 1.162445676983124
lfemur -1.6293471310753853 -4.374181266260743 -25.858966677579133
ltibia 16.145791586716573
lfoot -5.395372644437684 -6.096390031610829
ltoes -5.49413386662046
rfemur -18.597533128129918 -0.11469475920858496 18.94889392638369
rtibia 67.572602766945
rfoot -5.467006087004759 -3.5508487615182722
rtoes 8.445309883169873
lowerback -1.0 0.022959770519719314 -1.2258107693911913
upperback 0.26278888801824907 -0.048243216091699126 0.49543277199434443
thorax -5.0759009754361255 0.05261419444402843 0.8892503256838908
lowerneck -16.442786588432966 -3.192865974172762 -1.509912608691197
upperneck 21.328563714202836 -4.216172492898354 1.6086556375900347
head 9.607369940710678 -1.9890392348758794 0.3002866823158386
lclavicle 3.3759697122775605e-16 -8.553247183645977e-16
lhumerus -30.925998537586505 3.1427737027342495 80.50817417292023
lradius 27.83639152177017
lwrist 7.216507240916108
lhand -28.255964127699635 20.709342503140125
lfingers nan
lthumb -1.8435898005980513 50.55038163497585
rclavicle 4.325939595321607e-16 -7.886709364171831e-16
rhumerus -28.036473349468956 -16.61332021974537 -82.68063924678349
rradius 27.774534356925976
rwrist 1.9338280866130169
rhand -17.607061518672 -1.0
rfingers nan
rthumb 8.762293654257354 -7.339943453334775
